<svg width="12" height="16" viewBox="0 0 12 16" fill="none" xmlns="http://www.w3.org/2000/svg">
    <path fill-rule="evenodd" clip-rule="evenodd" d="M6 0.666687L0.522 1.88402C0.373958 1.91693 0.241561 1.99933 0.14666 2.11762C0.0517586 2.23592 2.60252e-05 2.38303 0 2.53469V9.19335C0.000157571 9.85173 0.162824 10.4999 0.473565 11.0803C0.784307 11.6608 1.23352 12.1555 1.78133 12.5207L6 15.3334L10.2187 12.5207C10.7666 12.1554 11.2158 11.6606 11.5266 11.08C11.8373 10.4995 12 9.85118 12 9.19269V2.53469C12 2.38303 11.9482 2.23592 11.8533 2.11762C11.7584 1.99933 11.626 1.91693 11.478 1.88402L6 0.666687ZM9.25046 4.44754L4.77742 8.54273L2.74955 6.69597L1.5332 7.82584L4.77742 10.8025L10.4677 5.57742L9.25046 4.44754Z" fill="#8D8D9C"/>
</svg>
