<svg width="16" height="16" viewBox="0 0 16 16" fill="none" xmlns="http://www.w3.org/2000/svg">
    <g opacity="0.5">
        <path d="M12 5.33329H13.3333C13.5101 5.33329 13.6797 5.40353 13.8047 5.52855C13.9298 5.65358 14 5.82315 14 5.99996V14C14 14.1768 13.9298 14.3463 13.8047 14.4714C13.6797 14.5964 13.5101 14.6666 13.3333 14.6666H2.66667C2.48986 14.6666 2.32029 14.5964 2.19526 14.4714C2.07024 14.3463 2 14.1768 2 14V5.99996C2 5.82315 2.07024 5.65358 2.19526 5.52855C2.32029 5.40353 2.48986 5.33329 2.66667 5.33329H4V4.66663C4 3.60576 4.42143 2.58834 5.17157 1.8382C5.92172 1.08805 6.93913 0.666626 8 0.666626C9.06087 0.666626 10.0783 1.08805 10.8284 1.8382C11.5786 2.58834 12 3.60576 12 4.66663V5.33329ZM7.33333 10.488V12H8.66667V10.488C8.92086 10.3412 9.11952 10.1147 9.23184 9.8435C9.34416 9.57233 9.36387 9.27168 9.2879 8.98817C9.21193 8.70466 9.04454 8.45413 8.81168 8.27545C8.57882 8.09678 8.29351 7.99993 8 7.99993C7.70649 7.99993 7.42118 8.09678 7.18832 8.27545C6.95546 8.45413 6.78807 8.70466 6.7121 8.98817C6.63613 9.27168 6.65584 9.57233 6.76816 9.8435C6.88048 10.1147 7.07914 10.3412 7.33333 10.488ZM10.6667 5.33329V4.66663C10.6667 3.95938 10.3857 3.2811 9.88562 2.78101C9.38552 2.28091 8.70724 1.99996 8 1.99996C7.29276 1.99996 6.61448 2.28091 6.11438 2.78101C5.61428 3.2811 5.33333 3.95938 5.33333 4.66663V5.33329H10.6667Z" fill="#8D8D9C"/>
    </g>
</svg>
